<?xml version="1.0" encoding="UTF-8" standalone="no"?>
<svg width="133px" height="47px" viewBox="0 0 133 47" version="1.1" xmlns="http://www.w3.org/2000/svg" xmlns:xlink="http://www.w3.org/1999/xlink">
    <!-- Generator: Sketch 3.8.2 (29753) - http://www.bohemiancoding.com/sketch -->
    <title>apple</title>
    <desc>Created with Sketch.</desc>
    <defs>
        <rect id="path-1" x="0" y="0" width="131" height="44.4464286" rx="6"></rect>
        <mask id="mask-2" maskContentUnits="userSpaceOnUse" maskUnits="objectBoundingBox" x="-1" y="-1" width="133" height="46.4464286">
            <rect x="-1" y="-1" width="133" height="46.4464286" fill="white"></rect>
            <use xlink:href="#path-1" fill="black"></use>
        </mask>
    </defs>
    <g id="Page-1" stroke="none" stroke-width="1" fill="none" fill-rule="evenodd">
        <g id="Landing-Mobile" transform="translate(-43.000000, -367.000000)">
            <g id="download-buttons" transform="translate(44.000000, 368.000000)">
                <g id="apple">
                    <use id="bg" stroke="#FFFFFF" mask="url(#mask-2)" stroke-width="2" stroke-linecap="square" xlink:href="#path-1"></use>
                    <path d="M52.7344863,32.4966086 L50.5045406,32.4966086 L49.2830291,28.6560161 L45.0371966,28.6560161 L43.8736186,32.4966086 L41.7025882,32.4966086 L45.9091437,19.4214986 L48.5073104,19.4214986 L52.7344863,32.4966086 L52.7344863,32.4966086 Z M48.9148082,27.0447161 L47.8101455,23.6305286 C47.6932967,23.2817411 47.474328,22.4603711 47.1512756,21.1674011 L47.1119987,21.1674011 C46.9833668,21.7234961 46.7761812,22.5448661 46.4914237,23.6305286 L45.4063995,27.0447161 L48.9148082,27.0447161 Z M63.5523254,27.6666386 C63.5523254,29.2700786 63.1192976,30.5375036 62.2532421,31.4679311 C61.4775234,32.2961786 60.5142575,32.7098111 59.3644264,32.7098111 C58.1232765,32.7098111 57.2316909,32.2637561 56.6886878,31.3716461 L56.6494109,31.3716461 L56.6494109,36.3381836 L54.5559524,36.3381836 L54.5559524,26.1722561 C54.5559524,25.1642111 54.5294405,24.1296386 54.4783805,23.0685386 L56.319485,23.0685386 L56.4363338,24.5629211 L56.4756107,24.5629211 C57.1737575,23.4369761 58.2332518,22.8749861 59.6550754,22.8749861 C60.7666116,22.8749861 61.6945282,23.3141636 62.4368616,24.1935011 C63.1811587,25.0738211 63.5523254,26.2312061 63.5523254,27.6666386 Z M61.4195899,27.7432736 C61.4195899,26.8256186 61.2133862,26.0690936 60.799015,25.4736986 C60.3463488,24.8527586 59.7385388,24.5422886 58.976567,24.5422886 C58.4600758,24.5422886 57.9907169,24.7152086 57.5714361,25.0561361 C57.1511733,25.4000111 56.876235,25.8490136 56.7476032,26.4051086 C56.6827963,26.6644886 56.6503929,26.8767086 56.6503929,27.0437336 L56.6503929,28.6157336 C56.6503929,29.3015186 56.8605243,29.8802111 57.280787,30.3527936 C57.7010498,30.8253761 58.2469987,31.0611761 58.9186336,31.0611761 C59.7071173,31.0611761 60.3208188,30.7566011 60.7597381,30.1494161 C61.1996393,29.5412486 61.4195899,28.7395286 61.4195899,27.7432736 Z M74.3898029,27.6666386 C74.3898029,29.2700786 73.9567751,30.5375036 73.0897377,31.4679311 C72.3150009,32.2961786 71.351735,32.7098111 70.2019039,32.7098111 C68.960754,32.7098111 68.0691684,32.2637561 67.5271473,31.3716461 L67.4878704,31.3716461 L67.4878704,36.3381836 L65.3944118,36.3381836 L65.3944118,26.1722561 C65.3944118,25.1642111 65.3678999,24.1296386 65.3168399,23.0685386 L67.1579444,23.0685386 L67.2747932,24.5629211 L67.3140701,24.5629211 C68.011235,23.4369761 69.0707293,22.8749861 70.4935348,22.8749861 C71.6040891,22.8749861 72.5320057,23.3141636 73.2763029,24.1935011 C74.0176543,25.0738211 74.3898029,26.2312061 74.3898029,27.6666386 Z M72.2570675,27.7432736 C72.2570675,26.8256186 72.0498818,26.0690936 71.6355106,25.4736986 C71.1828444,24.8527586 70.5769982,24.5422886 69.8140445,24.5422886 C69.2965714,24.5422886 68.8281944,24.7152086 68.4079317,25.0561361 C67.9876689,25.4000111 67.7137125,25.8490136 67.5850807,26.4051086 C67.5212557,26.6644886 67.4878704,26.8767086 67.4878704,27.0437336 L67.4878704,28.6157336 C67.4878704,29.3015186 67.6980018,29.8802111 68.1163007,30.3527936 C68.5365635,30.8243936 69.0825123,31.0611761 69.7561111,31.0611761 C70.5445948,31.0611761 71.1582963,30.7566011 71.5972156,30.1494161 C72.0371168,29.5412486 72.2570675,28.7395286 72.2570675,27.7432736 Z M86.5067253,28.8299186 C86.5067253,29.9421086 86.1208298,30.8469911 85.346093,31.5455486 C84.4947663,32.3089511 83.309586,32.6901611 81.7866243,32.6901611 C80.3805115,32.6901611 79.2532646,32.4189911 78.399974,31.8756686 L78.8850437,30.1297661 C79.804123,30.6858611 80.8125573,30.9648911 81.9113285,30.9648911 C82.6998122,30.9648911 83.3135137,30.7860761 83.7543968,30.4304111 C84.1933161,30.0747461 84.4122848,29.5972511 84.4122848,29.0018561 C84.4122848,28.4713061 84.2316111,28.0242686 83.8692817,27.6617261 C83.5089162,27.2991836 82.9069978,26.9621861 82.0664722,26.6507336 C79.778593,25.7969411 78.6356354,24.5462186 78.6356354,22.9015136 C78.6356354,21.8266586 79.0362597,20.9453561 79.8384903,20.2595711 C80.6377751,19.5728036 81.7041429,19.2299111 83.0375935,19.2299111 C84.2267015,19.2299111 85.2145154,19.4372186 86.0029991,19.8508511 L85.4796345,21.5584361 C84.7431927,21.1575761 83.9105225,20.9571461 82.9786781,20.9571461 C82.2422363,20.9571461 81.6668298,21.1389086 81.2544224,21.5004686 C80.9058399,21.8237111 80.7310578,22.2176936 80.7310578,22.6843811 C80.7310578,23.2011761 80.930388,23.6285636 81.3310123,23.9645786 C81.6795948,24.2750486 82.3129347,24.6110636 83.2320141,24.9736061 C84.3563153,25.4265386 85.182112,25.9561061 85.713332,26.5632911 C86.2425882,27.1685111 86.5067253,27.9260186 86.5067253,28.8299186 Z M93.4282963,24.6405386 L91.1207787,24.6405386 L91.1207787,29.2180061 C91.1207787,30.3822686 91.5272945,30.9639086 92.3422901,30.9639086 C92.7164026,30.9639086 93.02669,30.9314861 93.2721706,30.8666411 L93.3301041,32.4573086 C92.9176966,32.6115611 92.3746936,32.6891786 91.7020767,32.6891786 C90.8752981,32.6891786 90.2291931,32.4366761 89.76278,31.9326536 C89.2983307,31.4276486 89.0646332,30.5807336 89.0646332,29.3909261 L89.0646332,24.6385736 L87.6899418,24.6385736 L87.6899418,23.0665736 L89.0646332,23.0665736 L89.0646332,21.3403211 L91.1207787,20.7193811 L91.1207787,23.0665736 L93.4282963,23.0665736 L93.4282963,24.6405386 Z M103.839619,27.7049561 C103.839619,29.1541436 103.425248,30.3439511 102.59847,31.2743786 C101.731432,32.2323161 100.580619,32.7098111 99.1460304,32.7098111 C97.7634837,32.7098111 96.6627487,32.2509836 95.8418616,31.3333286 C95.0209744,30.4156736 94.6105309,29.2573061 94.6105309,27.8611736 C94.6105309,26.4001961 95.0327575,25.2035111 95.8801565,24.2730836 C96.7255917,23.3416736 97.8665855,22.8759686 99.3011742,22.8759686 C100.683721,22.8759686 101.796239,23.3347961 102.635783,24.2534336 C103.438995,25.1445611 103.839619,26.2950686 103.839619,27.7049561 Z M101.667607,27.7727486 C101.667607,26.9032361 101.482024,26.1575186 101.105948,25.5355961 C100.667028,24.7830011 100.03958,24.4076861 99.2265481,24.4076861 C98.3850406,24.4076861 97.7458091,24.7839836 97.3068898,25.5355961 C96.9308135,26.1585011 96.7452302,26.9160086 96.7452302,27.8120486 C96.7452302,28.6815611 96.9308135,29.4272786 97.3068898,30.0482186 C97.759556,30.8008136 98.391914,31.1761286 99.2078915,31.1761286 C100.007176,31.1761286 100.634625,30.7929536 101.087291,30.0285686 C101.473187,29.3948561 101.667607,28.6412786 101.667607,27.7727486 Z M110.644342,24.9107261 C110.437156,24.8724086 110.216224,24.8527586 109.98449,24.8527586 C109.248048,24.8527586 108.678533,25.1308061 108.277909,25.6878836 C107.929326,26.1791336 107.754544,26.8000736 107.754544,27.5497211 L107.754544,32.4966086 L105.662067,32.4966086 L105.681706,26.0376536 C105.681706,24.9510086 105.655194,23.9616311 105.603152,23.0695211 L107.426582,23.0695211 L107.503172,24.8733911 L107.561105,24.8733911 C107.782038,24.2534336 108.13062,23.7543236 108.607835,23.3799911 C109.074248,23.0429936 109.577974,22.8749861 110.120977,22.8749861 C110.314416,22.8749861 110.489198,22.8887411 110.644342,22.9133036 L110.644342,24.9107261 Z M120.006972,27.3365186 C120.006972,27.7118336 119.982424,28.0281986 119.930382,28.2865961 L113.650006,28.2865961 C113.674554,29.2180061 113.977968,29.9303186 114.56123,30.4215686 C115.090486,30.8607461 115.774886,31.0808261 116.615412,31.0808261 C117.545292,31.0808261 118.393673,30.9324686 119.156627,30.6347711 L119.484589,32.0888711 C118.593004,32.4779411 117.540383,32.6714936 116.325745,32.6714936 C114.864644,32.6714936 113.717759,32.2411586 112.883125,31.3814711 C112.050455,30.5217836 111.633138,29.3673461 111.633138,27.9191411 C111.633138,26.4974636 112.020997,25.3135511 112.797698,24.3693686 C113.610729,23.3613236 114.7095,22.8573011 116.092047,22.8573011 C117.450046,22.8573011 118.478119,23.3613236 119.176265,24.3693686 C119.729088,25.1701061 120.006972,26.1604661 120.006972,27.3365186 Z M118.010724,26.7931961 C118.02447,26.1722561 117.887983,25.6358111 117.604208,25.1828786 C117.241878,24.6002561 116.685128,24.3094361 115.935922,24.3094361 C115.251522,24.3094361 114.694772,24.5933786 114.269599,25.1632286 C113.921017,25.6161611 113.713831,26.1594836 113.650006,26.7922136 L118.010724,26.7922136 L118.010724,26.7931961 Z" id="app-store" fill="#FFFFFF"></path>
                    <path d="M48.2225529,11.3777711 C48.2225529,12.5341736 47.8759343,13.4046686 47.183679,13.9892561 C46.5424837,14.5286486 45.6312597,14.7988361 44.450989,14.7988361 C43.8657632,14.7988361 43.3649828,14.7732911 42.9457019,14.7222011 L42.9457019,8.40374357 C43.4926327,8.31531857 44.0817862,8.27012357 44.7180719,8.27012357 C45.842373,8.27012357 46.689772,8.51476607 47.2612509,9.00405107 C47.9014643,9.55719857 48.2225529,10.3481111 48.2225529,11.3777711 Z M47.1375287,11.4062636 C47.1375287,10.6566161 46.9391803,10.0818536 46.5424837,9.68099357 C46.145787,9.28111607 45.5664528,9.08068607 44.8034991,9.08068607 C44.4794647,9.08068607 44.2035445,9.10230107 43.9747566,9.14749607 L43.9747566,13.9509386 C44.1014246,13.9705886 44.3331583,13.9794311 44.6699577,13.9794311 C45.4574594,13.9794311 46.0652694,13.7603336 46.4933876,13.3221386 C46.9215057,12.8839436 47.1375287,12.2453186 47.1375287,11.4062636 Z M53.9756362,12.3877811 C53.9756362,13.1000936 53.7723783,13.6836986 53.3658624,14.1415436 C52.9397081,14.6121611 52.3751027,14.8469786 51.6700825,14.8469786 C50.9905922,14.8469786 50.4495529,14.6219861 50.0459828,14.1700361 C49.6433946,13.7190686 49.4421005,13.1502011 49.4421005,12.4644161 C49.4421005,11.7471911 49.6492862,11.1586736 50.0656213,10.7018111 C50.4819563,10.2449486 51.0416521,10.0160261 51.7466724,10.0160261 C52.4261627,10.0160261 52.9721116,10.2410186 53.3855009,10.6919861 C53.7782698,11.1301811 53.9756362,11.6961011 53.9756362,12.3877811 Z M52.9082866,12.4211861 C52.9082866,11.9937986 52.8159859,11.6273261 52.6323664,11.3217686 C52.4163435,10.9523486 52.1090018,10.7676386 51.7093593,10.7676386 C51.29597,10.7676386 50.9817549,10.9523486 50.7657319,11.3217686 C50.5811305,11.6273261 50.4898117,11.9996936 50.4898117,12.4398536 C50.4898117,12.8672411 50.5821124,13.2337136 50.7657319,13.5392711 C50.9886283,13.9086911 51.2989158,14.0934011 51.6995401,14.0934011 C52.0923091,14.0934011 52.4006327,13.9057436 52.6225472,13.5294461 C52.8130401,13.2179936 52.9082866,12.8485736 52.9082866,12.4211861 Z M61.6896186,10.1103461 L60.2412831,14.7418511 L59.2986376,14.7418511 L58.698683,12.7306736 C58.546485,12.2286161 58.4227628,11.7295061 58.3265344,11.2343261 L58.3078779,11.2343261 C58.2185229,11.7432611 58.0948007,12.2413886 57.9357293,12.7306736 L57.2984616,14.7418511 L56.345015,14.7418511 L54.9830886,10.1103461 L56.040619,10.1103461 L56.5639837,12.3121286 C56.6906517,12.8328536 56.7947354,13.3290161 56.8781989,13.7986511 L56.8968554,13.7986511 C56.9734453,13.4115461 57.1001133,12.9183311 57.2788232,12.3219536 L57.9357293,10.1113286 L58.774291,10.1113286 L59.4037033,12.2747936 C59.5559012,12.8023961 59.6796235,13.3103486 59.7748699,13.7996336 L59.8033457,13.7996336 C59.8730622,13.3231211 59.9781279,12.8151686 60.1175608,12.2747936 L60.6792205,10.1113286 L61.6896186,10.1113286 L61.6896186,10.1103461 Z M67.024403,14.7418511 L65.9953483,14.7418511 L65.9953483,12.0891011 C65.9953483,11.2716611 65.6850608,10.8629411 65.062522,10.8629411 C64.7571442,10.8629411 64.5106817,10.9749461 64.3192068,11.1999386 C64.1296958,11.4249311 64.0334674,11.6902061 64.0334674,11.9937986 L64.0334674,14.7408686 L63.0044127,14.7408686 L63.0044127,11.4337736 C63.0044127,11.0270186 62.9916477,10.5858761 62.9670996,10.1083811 L63.8714502,10.1083811 L63.9195644,10.8324836 L63.9480401,10.8324836 C64.0678347,10.6074911 64.2465445,10.4217986 64.481224,10.2734411 C64.7600899,10.1005211 65.0723413,10.0130786 65.4140503,10.0130786 C65.8460961,10.0130786 66.2054797,10.1525936 66.4912191,10.4326061 C66.846675,10.7754986 67.024403,11.2873811 67.024403,11.9672711 L67.024403,14.7418511 Z M68.834086,7.98519857 L69.8621587,7.98519857 L69.8621587,14.7418511 L68.834086,14.7418511 L68.834086,7.98519857 Z M75.9206199,12.3877811 C75.9206199,13.1000936 75.717362,13.6836986 75.3108461,14.1415436 C74.8846918,14.6121611 74.3191045,14.8469786 73.6150661,14.8469786 C72.9345939,14.8469786 72.3935547,14.6219861 71.9909665,14.1700361 C71.5883783,13.7190686 71.3870842,13.1502011 71.3870842,12.4644161 C71.3870842,11.7471911 71.5942698,11.1586736 72.0106049,10.7018111 C72.42694,10.2449486 72.9866358,10.0160261 73.6906742,10.0160261 C74.3711464,10.0160261 74.9161133,10.2410186 75.3304846,10.6919861 C75.7232535,11.1301811 75.9206199,11.6961011 75.9206199,12.3877811 Z M74.8522884,12.4211861 C74.8522884,11.9937986 74.7599877,11.6273261 74.5763682,11.3217686 C74.3613272,10.9523486 74.0530035,10.7676386 73.654343,10.7676386 C73.2399718,10.7676386 72.9257566,10.9523486 72.7107156,11.3217686 C72.5261142,11.6273261 72.4347954,11.9996936 72.4347954,12.4398536 C72.4347954,12.8672411 72.5270961,13.2337136 72.7107156,13.5392711 C72.933612,13.9086911 73.2438995,14.0934011 73.6445238,14.0934011 C74.0372928,14.0934011 74.3446345,13.9057436 74.5665489,13.5294461 C74.7580238,13.2179936 74.8522884,12.8485736 74.8522884,12.4211861 Z M80.9009303,14.7418511 L79.9769414,14.7418511 L79.9003514,14.2083536 L79.8718757,14.2083536 C79.5556966,14.6337761 79.1049943,14.8469786 78.5197685,14.8469786 C78.0828131,14.8469786 77.729321,14.7064811 77.46322,14.4274511 C77.2216671,14.1739661 77.1008907,13.8585836 77.1008907,13.4842511 C77.1008907,12.9183311 77.336552,12.4870136 77.8108205,12.1883336 C78.2841071,11.8896536 78.9498505,11.7432611 79.8070688,11.7501386 L79.8070688,11.6636786 C79.8070688,11.0535461 79.4869621,10.7489711 78.8457668,10.7489711 C78.3891728,10.7489711 77.9865847,10.8639236 77.6389841,11.0918636 L77.4298347,10.4159036 C77.8599167,10.1496461 78.3911367,10.0160261 79.0176032,10.0160261 C80.2273316,10.0160261 80.8341596,10.6546511 80.8341596,11.9319011 L80.8341596,13.6375211 C80.8341596,14.1002786 80.8567438,14.4687161 80.9009303,14.7418511 Z M79.8325988,13.1502011 L79.8325988,12.4359236 C78.6974965,12.4162736 78.1299453,12.7277261 78.1299453,13.3692986 C78.1299453,13.6109936 78.1947522,13.7917736 78.3273117,13.9126211 C78.4598713,14.0334686 78.6287619,14.0934011 78.830056,14.0934011 C79.0558981,14.0934011 79.2670115,14.0216786 79.4594683,13.8792161 C79.652907,13.7357711 79.7717196,13.5540086 79.8159061,13.3309811 C79.8267072,13.2808736 79.8325988,13.2199586 79.8325988,13.1502011 Z M86.7482782,14.7418511 L85.8350904,14.7418511 L85.7869762,13.9980986 L85.7585004,13.9980986 C85.4668695,14.5640186 84.9700168,14.8469786 84.2718699,14.8469786 C83.714138,14.8469786 83.2496887,14.6278811 82.8814678,14.1896861 C82.5132469,13.7514911 82.3296274,13.1826236 82.3296274,12.4840661 C82.3296274,11.7344186 82.5289577,11.1272336 82.929582,10.6634936 C83.3174414,10.2311936 83.7926918,10.0150436 84.3582791,10.0150436 C84.979836,10.0150436 85.4148276,10.2243161 85.662272,10.6438436 L85.6819105,10.6438436 L85.6819105,7.98519857 L86.7119471,7.98519857 L86.7119471,13.4940761 C86.7119471,13.9450436 86.7237302,14.3606411 86.7482782,14.7418511 Z M85.6819105,12.7886411 L85.6819105,12.0163961 C85.6819105,11.8827761 85.6720913,11.7747011 85.6534347,11.6921711 C85.5955013,11.4445811 85.4707972,11.2362911 85.2812862,11.0682836 C85.0898113,10.9002761 84.8590595,10.8157811 84.5929586,10.8157811 C84.2090269,10.8157811 83.9085586,10.9680686 83.6876261,11.2736261 C83.4686574,11.5791836 83.3577002,11.9692361 83.3577002,12.4457486 C83.3577002,12.9035936 83.4627659,13.2749786 83.6738792,13.5608861 C83.8967756,13.8654611 84.1972438,14.0177486 84.5733201,14.0177486 C84.9111014,14.0177486 85.1811301,13.8910061 85.3863519,13.6365386 C85.5847002,13.4017211 85.6819105,13.1187611 85.6819105,12.7886411 Z M95.5492487,12.3877811 C95.5492487,13.1000936 95.3459907,13.6836986 94.9394749,14.1415436 C94.5133205,14.6121611 93.9496971,14.8469786 93.2436949,14.8469786 C92.5651865,14.8469786 92.0241473,14.6219861 91.6195952,14.1700361 C91.2170071,13.7190686 91.015713,13.1502011 91.015713,12.4644161 C91.015713,11.7471911 91.2228986,11.1586736 91.6392337,10.7018111 C92.0555688,10.2449486 92.6152646,10.0160261 93.3212668,10.0160261 C93.9997751,10.0160261 94.5467059,10.2410186 94.9591133,10.6919861 C95.3518823,11.1301811 95.5492487,11.6961011 95.5492487,12.3877811 Z M94.482881,12.4211861 C94.482881,11.9937986 94.3905802,11.6273261 94.2069608,11.3217686 C93.9899559,10.9523486 93.6835961,10.7676386 93.2829718,10.7676386 C92.8705644,10.7676386 92.5563492,10.9523486 92.3393444,11.3217686 C92.1547429,11.6273261 92.0634242,11.9996936 92.0634242,12.4398536 C92.0634242,12.8672411 92.1557249,13.2337136 92.3393444,13.5392711 C92.5622407,13.9086911 92.8725282,14.0934011 93.2731526,14.0934011 C93.6659215,14.0934011 93.9752271,13.9057436 94.1971415,13.5294461 C94.3866526,13.2179936 94.482881,12.8485736 94.482881,12.4211861 Z M101.082381,14.7418511 L100.054309,14.7418511 L100.054309,12.0891011 C100.054309,11.2716611 99.7440212,10.8629411 99.1205004,10.8629411 C98.8151226,10.8629411 98.5686601,10.9749461 98.3781671,11.1999386 C98.1876742,11.4249311 98.0924277,11.6902061 98.0924277,11.9937986 L98.0924277,14.7408686 L97.0623911,14.7408686 L97.0623911,11.4337736 C97.0623911,11.0270186 97.050608,10.5858761 97.02606,10.1083811 L97.9294286,10.1083811 L97.9775428,10.8324836 L98.0060185,10.8324836 C98.126795,10.6074911 98.3055049,10.4217986 98.5392024,10.2734411 C98.8190503,10.1005211 99.1303197,10.0130786 99.4730106,10.0130786 C99.9040745,10.0130786 100.263458,10.1525936 100.549198,10.4326061 C100.905635,10.7754986 101.082381,11.2873811 101.082381,11.9672711 L101.082381,14.7418511 Z M108.00788,10.8816086 L106.874742,10.8816086 L106.874742,13.1315336 C106.874742,13.7033486 107.076036,13.9892561 107.474696,13.9892561 C107.659298,13.9892561 107.812478,13.9735361 107.933254,13.9411136 L107.959766,14.7222011 C107.756508,14.7988361 107.489425,14.8371536 107.160481,14.8371536 C106.753965,14.8371536 106.437786,14.7133586 106.208998,14.4657686 C105.979228,14.2181786 105.865325,13.8015986 105.865325,13.2170111 L105.865325,10.8816086 L105.188781,10.8816086 L105.188781,10.1103461 L105.865325,10.1103461 L105.865325,9.26146607 L106.87376,8.95689107 L106.87376,10.1093636 L108.006898,10.1093636 L108.006898,10.8816086 L108.00788,10.8816086 Z M113.455586,14.7418511 L112.425549,14.7418511 L112.425549,12.1087511 C112.425549,11.2785386 112.115261,10.8629411 111.493705,10.8629411 C111.01649,10.8629411 110.690492,11.1036536 110.511782,11.5850786 C110.481343,11.6862761 110.463668,11.8100711 110.463668,11.9554811 L110.463668,14.7408686 L109.435595,14.7408686 L109.435595,7.98519857 L110.463668,7.98519857 L110.463668,10.7764811 L110.483306,10.7764811 C110.807341,10.2685286 111.27179,10.0150436 111.873709,10.0150436 C112.299863,10.0150436 112.652373,10.1545586 112.932221,10.4345711 C113.280803,10.7833586 113.455586,11.3021186 113.455586,11.9879036 L113.455586,14.7418511 Z M119.075127,12.2070011 C119.075127,12.3917111 119.061381,12.5469461 119.036832,12.6736886 L115.95065,12.6736886 C115.964397,13.1315336 116.111686,13.4803211 116.397425,13.7220161 C116.658616,13.9381661 116.995416,14.0462411 117.407823,14.0462411 C117.864417,14.0462411 118.280752,13.9735361 118.655847,13.8271436 L118.816882,14.5424036 C118.377963,14.7330086 117.861471,14.8283111 117.263481,14.8283111 C116.546677,14.8283111 115.982072,14.6170736 115.573592,14.1945986 C115.163149,13.7721236 114.959891,13.2052211 114.959891,12.4938911 C114.959891,11.7953336 115.149402,11.2136936 115.531369,10.7499536 C115.93003,10.2547736 116.469105,10.0071836 117.149578,10.0071836 C117.815321,10.0071836 118.321011,10.2547736 118.66272,10.7499536 C118.93864,11.1429536 119.075127,11.6292911 119.075127,12.2070011 Z M118.093205,11.9407436 C118.10106,11.6351861 118.033308,11.3718761 117.893875,11.1498311 C117.715165,10.8639236 117.443172,10.7204786 117.074951,10.7204786 C116.739134,10.7204786 116.465178,10.8599936 116.256028,11.1400061 C116.085174,11.3630336 115.984036,11.6292911 115.95065,11.9407436 L118.093205,11.9407436 Z" id="download-on-the" fill="#FFFFFF"></path>
                    <path d="M29.3635582,21.389069 C29.3348393,18.197309 31.9769789,16.6445073 32.0977963,16.5722149 C30.6014422,14.3905681 28.2821428,14.0924857 27.4671199,14.0687183 C25.5191857,13.8637247 23.6296796,15.2343099 22.6373918,15.2343099 C21.6252979,15.2343099 20.0972539,14.0885244 18.450373,14.1221949 C16.3311156,14.154875 14.3485206,15.3818656 13.2611634,17.2872167 C11.0171273,21.1721917 12.6907464,26.8813127 14.8407033,30.0215768 C15.9161769,31.5595238 17.1728767,33.2767165 18.817777,33.2163077 C20.4270262,33.1499572 21.0281426,32.1903495 22.970135,32.1903495 C24.8943019,32.1903495 25.458777,33.2163077 27.1363573,33.1776858 C28.8634531,33.1499572 29.9508104,31.6328065 30.9886523,30.0809952 C32.2314878,28.3182484 32.7306026,26.5822399 32.7504088,26.4931123 C32.7098062,26.479248 29.3962383,25.2146257 29.3635582,21.389069 Z M26.1945752,12.0029375 C27.0601037,10.9205318 27.6523074,9.44794497 27.4879164,7.95357143 C26.2351778,8.00902863 24.6685118,8.82009022 23.766342,9.8787286 C22.9681544,10.811598 22.2551332,12.3406323 22.4393304,13.7785583 C23.8465569,13.8835309 25.2914151,13.068508 26.1945752,12.0029375 Z" fill="#FFFFFF"></path>
                </g>
            </g>
        </g>
    </g>
</svg>