<?xml version="1.0" encoding="UTF-8" standalone="no"?>
<svg width="51px" height="51px" viewBox="0 0 51 51" version="1.1" xmlns="http://www.w3.org/2000/svg" xmlns:xlink="http://www.w3.org/1999/xlink">
    <!-- Generator: Sketch 3.8.2 (29753) - http://www.bohemiancoding.com/sketch -->
    <title>Facebook</title>
    <desc>Created with Sketch.</desc>
    <defs>
        <path d="M25,50 C38.8071194,50 50,38.8071194 50,25 C50,11.1928806 38.8071194,0 25,0 C11.1928806,0 0,11.1928806 0,25 C0,38.8071194 11.1928806,50 25,50 Z" id="path-1"></path>
        <mask id="mask-2" maskContentUnits="userSpaceOnUse" maskUnits="objectBoundingBox" x="0" y="0" width="50" height="50" fill="white">
            <use xlink:href="#path-1"></use>
        </mask>
    </defs>
    <g id="Page-1" stroke="none" stroke-width="1" fill="none" fill-rule="evenodd">
        <g id="Landing-Mobile" transform="translate(-162.000000, -1783.000000)">
            <g id="Facebook" transform="translate(162.500000, 1783.803217)">
                <use id="FB-BG" stroke="#FFFFFF" mask="url(#mask-2)" stroke-width="4" xlink:href="#path-1"></use>
                <path d="M27.0319309,26.0297241 L31.8921194,26.0297241 L33,20.9825497 L27.0319309,20.9825497 L27.0319309,17.5012245 C27.0319309,15.9571614 27.825621,14.9813314 30.0996609,14.9813314 L33,14.9800074 L33,10.2101207 C32.4981176,10.1452441 30.7766786,10 28.7737722,10 C24.5921441,10 22.0072408,12.4858399 22.0072408,17.0501075 L22.0072408,20.9825497 L17,20.9825495 L17,26.0297241 L22.0072408,26.0297241 L22.0072408,40 L27.0319309,40 L27.0319309,26.0297241 Z" id="FB-Logo" fill="#FFFFFF"></path>
            </g>
        </g>
    </g>
</svg>