<?xml version="1.0" encoding="UTF-8" standalone="no"?>
<svg width="135px" height="47px" viewBox="0 0 135 47" version="1.1" xmlns="http://www.w3.org/2000/svg" xmlns:xlink="http://www.w3.org/1999/xlink">
    <!-- Generator: Sketch 3.8.2 (29753) - http://www.bohemiancoding.com/sketch -->
    <title>google play</title>
    <desc>Created with Sketch.</desc>
    <defs>
        <rect id="path-1" x="0" y="0" width="133" height="45" rx="5.68421053"></rect>
        <mask id="mask-2" maskContentUnits="userSpaceOnUse" maskUnits="objectBoundingBox" x="-0.947368421" y="-0.947368421" width="134.894737" height="46.8947368">
            <rect x="-0.947368421" y="-0.947368421" width="134.894737" height="46.8947368" fill="white"></rect>
            <use xlink:href="#path-1" fill="black"></use>
        </mask>
    </defs>
    <g id="Page-1" stroke="none" stroke-width="1" fill="none" fill-rule="evenodd">
        <g id="Landing-Mobile" transform="translate(-197.000000, -367.000000)">
            <g id="download-buttons" transform="translate(44.000000, 368.000000)">
                <g id="google-play" transform="translate(154.000000, 0.000000)">
                    <use id="bg" stroke="#FFFFFF" mask="url(#mask-2)" stroke-width="1.89473684" stroke-linecap="square" xlink:href="#path-1"></use>
                    <g transform="translate(9.938775, 18.020757)" stroke="#060A1C" stroke-width="0.947368421" fill="#FFFFFF">
                        <path d="M0.83211923,0.338404225 C0.457422267,0.456266187 0.214937329,0.837720909 0.214937329,1.4148381 L0.217246709,19.5783534 C0.217246709,20.149084 0.452226161,20.5247327 0.816530913,20.6501424 L10.9229567,10.4861449 L0.83211923,0.338404225" id="left"></path>
                        <path d="M0.816530913,20.6501424 C1.07864558,20.739555 1.40715494,20.6977517 1.7651089,20.5003474 L14.0983547,13.6794493 L10.9229567,10.4861449 L0.816530913,20.6501424" id="bottom"></path>
                        <path d="M14.1000867,13.6794493 L18.3054684,11.3541431 C19.1582071,10.8809535 19.1582071,10.1110768 18.3054684,9.63904836 L14.0844984,7.30503317 L10.9229567,10.4844031 L14.1000867,13.6794493" id="right"></path>
                        <path d="M14.0839211,7.30503317 L1.7651089,0.493424638 C1.41581512,0.301245774 1.09365656,0.256539513 0.832696575,0.338404225 L10.9229567,10.4844031 L14.0839211,7.30503317" id="top"></path>
                    </g>
                    <path d="M46.0963307,32.9502402 L43.4844215,33.5517426 C42.4261479,33.7195362 41.4758379,33.8670088 40.4695254,33.8670088 C35.4316122,33.8670088 33.5119397,30.1378099 33.5119397,27.2191297 C33.5119397,23.6548214 36.2318125,20.3500417 40.8898326,20.3500417 C41.8753607,20.3500417 42.8233613,20.4957725 43.6870696,20.7326576 C45.0559548,21.1193378 45.6962305,21.596011 46.0963307,21.87528 L44.5790678,23.3244596 L43.9393694,23.4684486 L44.395472,22.7374722 C43.7777128,22.1307444 42.642075,21.0107654 40.4868458,21.0107654 C37.6053164,21.0107654 35.4316122,23.2135648 35.4316122,26.4295126 C35.4316122,29.8835068 37.9136187,33.1325488 41.8944131,33.1325488 C43.0641142,33.1325488 43.6662852,32.8962443 44.213031,32.675616 L44.213031,29.7145519 L41.4550535,29.8637663 L42.9168912,29.0741493 L46.7874127,29.0741493 L46.3139898,29.5322433 C46.1863965,29.6413962 46.1690761,29.6785547 46.1332807,29.8248661 C46.1142284,29.9920791 46.0963307,30.5239095 46.0963307,30.7108629 L46.0963307,32.9502402 Z M52.086286,33.6301237 C48.9888296,33.6301237 47.3347359,31.2049542 47.3347359,29.009122 C47.3347359,26.4434471 49.4183743,24.2481955 52.3801546,24.2481955 C55.2426316,24.2481955 57.0347107,26.5032489 57.0347107,28.870939 C57.0347107,31.183472 55.2639933,33.6301237 52.086286,33.6301237 Z M54.5232596,32.0450835 C54.9909091,31.4180347 55.1075328,30.6353848 55.1075328,29.8724754 C55.1075328,28.1469298 54.2877028,24.8560845 51.873823,24.8560845 C51.2289285,24.8560845 50.5886528,25.1086458 50.1210033,25.5208724 C49.3589078,26.2065619 49.223809,27.0681735 49.223809,27.9135283 C49.223809,29.8492513 50.1793151,33.0419751 52.5366151,33.0419751 C53.2969786,33.0419751 54.0735078,32.6709712 54.5232596,32.0450835 Z M62.4548264,33.6301237 C59.3579474,33.6301237 57.700967,31.2049542 57.700967,29.009122 C57.700967,26.4434471 59.784028,24.2481955 62.746963,24.2481955 C65.611172,24.2481955 67.4049832,26.5032489 67.4049832,28.870939 C67.4049832,31.183472 65.6319565,33.6301237 62.4548264,33.6301237 Z M64.8912227,32.0450835 C65.3623363,31.4180347 65.4766506,30.6353848 65.4766506,29.8724754 C65.4766506,28.1469298 64.65913,24.8560845 62.2429408,24.8560845 C61.6003557,24.8560845 60.9531518,25.1086458 60.486657,25.5208724 C59.7257162,26.2065619 59.5900401,27.0681735 59.5900401,27.9135283 C59.5900401,29.8492513 60.5415048,33.0419751 62.9028462,33.0419751 C63.6649417,33.0419751 64.4426256,32.6709712 64.8912227,32.0450835 Z M74.5340404,25.2096704 C74.9814828,25.5795131 75.9150498,26.3644854 75.9150498,27.8531458 C75.9150498,29.3040672 75.1015706,29.9880149 74.2811632,30.6353848 C74.0294408,30.8902686 73.7349948,31.1666345 73.7349948,31.5939567 C73.7349948,32.0276655 74.0294408,32.2628088 74.2413264,32.4381503 L74.9451101,32.9844956 C75.8007355,33.7108272 76.5807287,34.3767763 76.5807287,35.7295762 C76.5807287,37.5724031 74.8071246,39.4309062 71.4556364,39.4309062 C68.6324189,39.4309062 67.2675751,38.078687 67.2675751,36.6289268 C67.2675751,35.9234968 67.6168689,34.9242829 68.7692497,34.2397545 C69.9770556,33.4971661 71.6132516,33.3978834 72.4896614,33.3398233 C72.2159999,32.9844956 71.9036562,32.6123305 71.9036562,32.0050221 C71.9036562,31.6729184 72.0029595,31.4749336 72.0987988,31.241532 C71.8857585,31.2618531 71.6709861,31.2827547 71.4758435,31.2827547 C69.4095254,31.2827547 68.2415563,29.7325506 68.2415563,28.2049899 C68.2415563,27.3038974 68.6503166,26.3041029 69.4897763,25.5795131 C70.6005883,24.6598414 71.9250179,24.5013374 72.977518,24.5013374 L76.9923758,24.5013374 L75.7441557,25.2096704 L74.5340404,25.2096704 Z M73.1536083,33.9076509 C72.9936837,33.8867493 72.8978444,33.8867493 72.7050111,33.8867493 C72.5283436,33.8867493 71.4758435,33.9250689 70.6606322,34.2002737 C70.2293554,34.3587777 68.9828674,34.8273225 68.9828674,36.2190227 C68.9828674,37.6078198 70.3286588,38.6093561 72.4105652,38.6093561 C74.2811632,38.6093561 75.2741968,37.7076831 75.2741968,36.4936468 C75.2741968,35.4944329 74.6316117,34.9672473 73.1536083,33.9076509 Z M73.713633,30.1848386 C74.1639622,29.7325506 74.2032217,29.1078241 74.2032217,28.753077 C74.2032217,27.3439589 73.3678033,25.1492879 71.7483503,25.1492879 C71.2431734,25.1492879 70.6958502,25.4041716 70.3852386,25.7983996 C70.0555745,26.2065619 69.9568485,26.7360699 69.9568485,27.2452568 C69.9568485,28.5574146 70.7177894,30.7335063 72.3915128,30.7335063 C72.8799467,30.7335063 73.4053307,30.4948794 73.713633,30.1848386 Z M79.8588942,31.9098035 C79.8588942,32.6709712 79.9939929,32.7894138 80.6342686,32.8492156 C80.9679741,32.8886965 81.3005248,32.9061145 81.6296115,32.9455954 L80.9090849,33.3769818 L77.4756136,33.3769818 C77.9259428,32.7894138 78.003307,32.7307731 78.003307,32.3394481 L78.003307,31.9022557 L77.9958016,20.2530814 L76.4796933,20.2530814 L77.9392217,19.5459096 L80.7254891,19.5459096 C80.1215862,19.8977537 79.9408772,20.1119954 79.8635129,20.7976849 L79.8588942,31.9098035 Z M89.4353172,32.0613404 L88.5034822,32.9455954 C88.2881325,33.0646185 88.0739374,33.2028015 87.8603198,33.3009231 C87.2131159,33.5964489 86.5549425,33.6707658 85.9700919,33.6707658 C85.3477139,33.6707658 84.3720007,33.6301237 83.3766578,32.9061145 C81.9939163,31.926641 81.389436,30.2428987 81.389436,28.7757205 C81.389436,25.7380171 83.8483487,24.2481955 85.8540456,24.2481955 C86.5549425,24.2481955 87.2748918,24.4246981 87.8603198,24.7968632 C88.8337236,25.4442331 89.085446,26.2855236 89.2251635,26.7360699 L84.645085,28.5968954 L83.1451424,28.7141768 C83.6306896,31.2049542 85.3061451,32.6535532 87.1576908,32.6535532 C88.0825976,32.6535532 88.7690609,32.349899 89.3989444,32.0369551 C89.3989444,32.0369551 89.525383,31.9707666 89.4353172,32.0613404 Z M86.6721436,27.1070738 C87.0439538,26.9712132 87.2373644,26.8539318 87.2373644,26.5810495 C87.2373644,25.7983996 86.3569131,24.8944041 85.3061451,24.8944041 C84.5278839,24.8944041 83.0666235,25.504035 83.0666235,27.6209055 C83.0666235,27.9512673 83.1058829,28.3031114 83.1255127,28.6549555 L86.6721436,27.1070738 Z M95.0511528,32.1449469 L95.0511528,37.1352107 L94.0656248,37.1352107 L94.0656248,24.4368907 L95.0511528,24.4368907 L95.0511528,25.8831673 C95.6931606,24.9484 96.8663258,24.2075534 98.2288602,24.2075534 C100.672762,24.2075534 102.318773,26.0718626 102.318773,29.0230564 C102.318773,31.9545098 100.672762,33.8577192 98.2288602,33.8577192 C96.9425354,33.8577192 95.7901546,33.1906089 95.0511528,32.1449469 Z M101.259922,29.0230564 C101.259922,26.7987748 100.106964,25.1022592 98.0625848,25.1022592 C96.793003,25.1022592 95.5788463,26.1055374 95.0511528,26.9805028 L95.0511528,31.045289 C95.5788463,31.9219962 96.793003,32.9618522 98.0625848,32.9618522 C100.106964,32.9618522 101.259922,31.2508216 101.259922,29.0230564 Z M103.664564,20.9306425 L104.649515,20.9306425 L104.649515,33.6289625 L103.664564,33.6289625 L103.664564,20.9306425 Z M112.82934,33.6016743 C112.763523,33.2829244 112.713871,33.0019136 112.677498,32.7673509 C112.647476,32.5333688 112.630156,32.2941613 112.630156,32.0508895 C112.292409,32.5496256 111.81379,32.9647552 111.202382,33.2916334 C110.590396,33.6208341 110.009009,33.7822411 109.211696,33.7822411 C108.251571,33.7822411 107.506218,33.5447754 106.974484,33.0628767 C106.444481,32.5815587 106.177747,31.929544 106.177747,31.1045102 C106.177747,30.2806377 106.563991,29.6117856 107.33417,29.1002763 C108.104348,28.5864446 109.099691,28.3309802 110.331745,28.3309802 L112.630156,28.3309802 L112.630156,27.1889385 C112.630156,26.5311178 112.407301,26.0138025 111.962168,25.6387344 C111.515303,25.2630856 110.888306,25.0732292 110.075404,25.0732292 C109.332361,25.0732292 108.729613,25.2468288 108.270623,25.5847385 C107.815675,25.9296154 107.586469,26.3569375 107.586469,26.8719305 L106.577848,26.8719305 L106.557063,26.8225794 C106.52069,26.1281808 106.836498,25.5191306 107.507951,24.9931063 C108.176516,24.4676626 109.052349,24.2034892 110.130252,24.2034892 C111.204691,24.2034892 112.074173,24.4635984 112.729459,24.9826555 C113.384169,25.4964872 113.712678,26.2390756 113.712678,27.2098401 L113.712678,31.7443323 C113.712678,32.0700494 113.728267,32.384735 113.768681,32.6912922 C113.81025,32.99843 113.876644,33.3049873 113.964978,33.6016743 L112.82934,33.6016743 Z M109.332361,32.8794069 C110.169511,32.8794069 110.771105,32.6912922 111.385977,32.3191271 C111.996809,31.9492844 112.412497,31.4668051 112.630156,30.8827207 L112.630156,29.1176943 L110.320776,29.1176943 C109.438592,29.1176943 108.708251,29.3139374 108.133793,29.7099071 C107.55818,30.1047157 107.26662,30.5825501 107.26662,31.1381851 C107.26662,31.6624676 107.451371,32.0816614 107.818562,32.39925 C108.186908,32.7203223 108.690353,32.8794069 109.332361,32.8794069 Z M115.707983,36.3142412 C115.918714,36.4088791 116.2784,36.4669392 116.506451,36.4669392 C117.109199,36.4669392 117.528929,36.2190227 117.905936,35.3434767 L118.62473,33.7056018 L114.742662,24.4368907 L115.841927,24.4368907 L119.172053,32.4689221 L122.469849,24.4368907 L123.584702,24.4368907 L118.849895,35.6506145 C118.358574,36.8060101 117.585509,37.361645 116.523771,37.361645 C116.205077,37.361645 115.78477,37.3047461 115.538821,37.2286874 L115.707983,36.3142412 Z" id="logotype" fill="#FFFFFF"></path>
                    <path d="M33.4384684,10.4606378 C33.4384684,8.4886975 34.9075588,7.22022533 36.7349495,7.22022533 C37.9592894,7.22022533 38.7594348,7.80283072 39.2589372,8.51627298 L38.3640688,9.03316659 C38.0251838,8.56320997 37.4315465,8.19768816 36.7349495,8.19768816 C35.4923709,8.19768816 34.5686737,9.13642797 34.5686737,10.4606378 C34.5686737,11.7654862 35.4923709,12.7235875 36.7349495,12.7235875 C37.375654,12.7235875 37.9404625,12.4325781 38.2228667,12.1603436 L38.2228667,11.1928549 L36.3395835,11.1928549 L36.3395835,10.2253662 L39.3154181,10.2253662 L39.3154181,12.5640017 C38.7035422,13.2498685 37.8180873,13.709851 36.7349495,13.709851 C34.9075588,13.709851 33.4384684,12.4237774 33.4384684,10.4606378 Z M40.6780185,13.5878148 L40.6780185,7.32348671 L44.9817412,7.32348671 L44.9817412,8.29156214 L41.779395,8.29156214 L41.779395,9.90619462 L44.9158469,9.90619462 L44.9158469,10.8736833 L41.779395,10.8736833 L41.779395,12.6203261 L44.9817412,12.6203261 L44.9817412,13.5878148 L40.6780185,13.5878148 Z M48.0305302,13.5878148 L48.0305302,8.29156214 L46.12842,8.29156214 L46.12842,7.32348671 L51.0346051,7.32348671 L51.0346051,8.29156214 L49.132495,8.29156214 L49.132495,13.5878148 L48.0305302,13.5878148 Z M54.8641241,7.32348671 L55.9655006,7.32348671 L55.9655006,13.5878148 L54.8641241,13.5878148 L54.8641241,7.32348671 Z M59.0342932,13.5878148 L59.0342932,8.29156214 L57.1321831,8.29156214 L57.1321831,7.32348671 L62.0383682,7.32348671 L62.0383682,8.29156214 L60.136258,8.29156214 L60.136258,13.5878148 L59.0342932,13.5878148 Z M65.5948964,10.4606378 C65.5948964,8.59137217 66.9221963,7.22022533 68.8066561,7.22022533 C70.6799375,7.22022533 72.0178275,8.59137217 72.0178275,10.4606378 C72.0178275,12.3293168 70.6799375,13.7004636 68.8066561,13.7004636 C66.9221963,13.7004636 65.5948964,12.3293168 65.5948964,10.4606378 Z M70.8876223,10.4606378 C70.8876223,9.16459016 70.0680617,8.19768816 68.8066561,8.19768816 C67.5346604,8.19768816 66.7251016,9.16459016 66.7251016,10.4606378 C66.7251016,11.7467114 67.5346604,12.7235875 68.8066561,12.7235875 C70.0680617,12.7235875 70.8876223,11.7467114 70.8876223,10.4606378 Z M77.6835623,13.5878148 L74.4059083,9.10826578 L74.4059083,13.5878148 L73.3045318,13.5878148 L73.3045318,7.32348671 L74.434737,7.32348671 L77.6459084,11.6628115 L77.6459084,7.32348671 L78.7478733,7.32348671 L78.7478733,13.5878148 L77.6835623,13.5878148 Z" id="get-it-on" fill="#FFFFFF"></path>
                </g>
            </g>
        </g>
    </g>
</svg>